<svg xmlns="http://www.w3.org/2000/svg" width="512" height="512" viewBox="0 0 512 512" role="img" aria-label="놀란 토다 양">
  <title>놀란 토다 양</title>
  <desc>토다 공동체용 귀여운 양 캐릭터 놀람 이미지</desc>
  <g transform="translate(0 0) rotate(0 256 266)">
    <ellipse cx="256" cy="430" rx="120" ry="28" fill="#2b3b3c" opacity=".10"/>
    
    <path d="M219 405l-22 61" fill="none" stroke="#6c5a50" stroke-width="17" stroke-linecap="round" stroke-linejoin="round"/><path d="M293 405l22 61" fill="none" stroke="#6c5a50" stroke-width="17" stroke-linecap="round" stroke-linejoin="round"/>
    <path d="M153 335c-42-16-61-41-59-76" fill="none" stroke="#6c5a50" stroke-width="17" stroke-linecap="round" stroke-linejoin="round"/><path d="M359 335c42-16 61-41 59-76" fill="none" stroke="#6c5a50" stroke-width="17" stroke-linecap="round" stroke-linejoin="round"/>
    <g transform="translate(0 0)">
      <ellipse cx="166" cy="226" rx="45" ry="64" fill="#ead0c8" stroke="#6c5a50" stroke-width="12"/>
      <ellipse cx="346" cy="226" rx="45" ry="64" fill="#ead0c8" stroke="#6c5a50" stroke-width="12"/>
      <g fill="#fff7e9" stroke="#6c5a50" stroke-width="12" stroke-linejoin="round">
        <circle cx="161" cy="166" r="48"/>
        <circle cx="216" cy="128" r="53"/>
        <circle cx="282" cy="128" r="53"/>
        <circle cx="340" cy="166" r="49"/>
        <circle cx="364" cy="235" r="57"/>
        <circle cx="324" cy="306" r="66"/>
        <circle cx="251" cy="326" r="74"/>
        <circle cx="178" cy="300" r="61"/>
        <circle cx="137" cy="232" r="53"/>
      </g>
      <path d="M179 202c0-72 154-72 154 0v78c0 58-32 94-77 94s-77-36-77-94z" fill="#f6ddcf" stroke="#6c5a50" stroke-width="12" stroke-linejoin="round"/>
      <path d="M164 352c47 38 138 38 184 0l27 47c-67 45-177 45-238 0z" fill="#087f83" stroke="#065d60" stroke-width="11" stroke-linejoin="round"/>
      <path d="M296 375l67 77 16-82z" fill="#0c999e" stroke="#065d60" stroke-width="10" stroke-linejoin="round"/>
      <circle cx="222" cy="252" r="15" fill="#312723"/>
      <circle cx="290" cy="252" r="15" fill="#312723"/>
      <ellipse cx="256" cy="313" rx="18" ry="25" fill="#8b2f48"/>
      <circle cx="190" cy="284" r="18" fill="#dc6f7e" opacity=".42"/>
      <circle cx="322" cy="284" r="18" fill="#dc6f7e" opacity=".42"/>
    </g>
    
  </g>
</svg>